<?xml version="1.0" standalone="no"?>
<!DOCTYPE svg PUBLIC "-//W3C//DTD SVG 20010904//EN"
 "http://www.w3.org/TR/2001/REC-SVG-20010904/DTD/svg10.dtd">
<svg version="1.0" xmlns="http://www.w3.org/2000/svg"
 width="256.000000pt" height="256.000000pt" viewBox="0 0 256.000000 256.000000"
 preserveAspectRatio="xMidYMid meet">
<metadata>
Created by potrace 1.11, written by Peter Selinger 2001-2013
</metadata>
<g transform="translate(0.000000,256.000000) scale(0.100000,-0.100000)"
fill="#000000" stroke="none">
<path d="M1960 2548 c-64 -11 -127 -36 -189 -75 -246 -156 -309 -499 -136
-732 32 -43 122 -122 163 -144 169 -87 367 -83 516 11 78 49 186 166 186 201
0 6 4 11 10 11 5 0 9 3 9 8 -1 4 0 10 1 15 1 4 3 10 5 15 1 4 5 14 8 22 24 57
32 268 11 302 -5 7 -9 19 -10 26 -2 12 -26 61 -56 114 -7 12 -37 48 -67 80
-108 115 -290 174 -451 146z"/>
<path d="M1415 1836 c-11 -6 -39 -24 -62 -39 -24 -15 -44 -27 -47 -27 -4 0
-174 -104 -191 -117 -5 -5 -21 -14 -35 -21 -14 -7 -56 -32 -95 -55 -38 -24
-104 -64 -147 -89 l-76 -46 -49 35 c-249 178 -574 84 -685 -199 -16 -40 -21
-75 -22 -143 0 -104 4 -127 37 -199 106 -231 385 -320 622 -199 91 47 181 164
210 273 15 57 18 156 6 196 l-9 31 97 52 c53 28 125 67 161 87 103 56 260 140
320 171 30 15 57 31 58 36 2 4 9 7 15 7 7 0 23 9 35 19 21 15 22 20 10 32 -23
23 -78 107 -78 118 0 6 -4 11 -10 11 -5 0 -10 8 -10 18 0 10 -3 22 -7 26 -5 4
-8 13 -8 19 0 15 -17 17 -40 3z"/>
<path d="M963 902 c-12 -26 -35 -67 -52 -92 -16 -25 -27 -48 -23 -51 8 -7 105
-59 242 -130 47 -24 87 -46 90 -49 3 -3 48 -27 101 -55 85 -43 96 -52 89 -70
-9 -25 -1 -180 10 -180 1 0 3 -8 5 -18 6 -31 55 -106 96 -146 134 -133 379
-137 509 -10 42 42 92 99 86 99 -3 0 5 21 16 47 16 36 22 69 22 128 0 77 -20
175 -36 175 -4 0 -8 5 -8 11 0 21 -89 117 -132 142 -140 81 -325 68 -438 -31
-31 -27 -37 -30 -55 -18 -11 7 -114 68 -230 135 -115 68 -224 131 -241 142
l-30 18 -21 -47z"/>
</g>
</svg>
